<svg xmlns="http://www.w3.org/2000/svg" width="119" height="140.289" viewBox="0 0 119 140.289">
  <g id="Group_7" data-name="Group 7" transform="translate(-128 -143.783)">
    <path id="Path_176" data-name="Path 176" d="M854.827,815.362a54.972,54.972,0,0,1-6.6,9.249l.07.07-2.333,2.344a55,55,0,0,1-94.011-38.775c0-1.082.034-2.185.1-3.277.007-.149.016-.3.026-.457l0-.043c.006-.1.013-.2.019-.3l0-.05c.017-.225.036-.453.056-.682.016-.186.033-.384.052-.583.031-.291.061-.589.093-.888.02-.172.04-.364.067-.552.027-.242.063-.513.1-.785.022-.152.043-.3.066-.447.033-.248.076-.523.122-.8.023-.145.05-.308.077-.467.022-.132.045-.271.072-.407.03-.175.067-.378.1-.573.033-.172.07-.36.106-.549.043-.215.086-.43.135-.648.315-1.5.7-3.007,1.146-4.473l.013-.039c.055-.193.115-.387.178-.579.05-.163.1-.333.159-.5.311-.96.658-1.93,1.027-2.87.049-.13.1-.269.158-.4s.117-.3.18-.447c.072-.182.155-.381.241-.582.063-.153.136-.322.208-.491l.033-.076c.1-.228.2-.458.3-.685.076-.169.153-.335.232-.5a54.531,54.531,0,0,1,5-8.6l.311-.43c.219-.3.437-.6.656-.886.106-.136.215-.285.328-.428.242-.312.483-.62.727-.924.143-.176.288-.358.438-.533.133-.166.285-.341.434-.519s.3-.351.45-.524c.169-.195.341-.394.516-.59l-6.458-6.462A64.126,64.126,0,1,0,861.484,822.02Z" transform="translate(-614.831 -568.306)" fill="#a70000"/>
    <path id="Path_177" data-name="Path 177" d="M778.04,822.475a48.047,48.047,0,0,0,34.2,14.164c.4,0,.808-.005,1.215-.016.2,0,.4-.01.6-.016h.029c.3-.013.592-.026.891-.043.238-.013.473-.025.708-.043L816,836.5l.163-.013c.215-.016.437-.037.655-.059.194-.016.377-.033.562-.053.136-.013.252-.026.364-.04l.246-.026c.158-.019.318-.04.48-.063.6-.073,1.185-.159,1.757-.255.162-.026.321-.056.479-.083l.053-.01c.129-.023.252-.043.378-.067l.063-.013c.166-.029.332-.063.494-.1.437-.086.861-.172,1.284-.269.285-.062.569-.132.851-.2l.037-.01c.073-.017.142-.034.215-.053.211-.052.4-.1.589-.152.166-.043.321-.082.473-.126.136-.037.252-.069.368-.1s.2-.055.288-.082l.067-.02q.179-.051.357-.106c.2-.059.374-.113.546-.169l.394-.123c.407-.132.807-.267,1.208-.41.112-.039.219-.076.321-.115l.079-.026c.142-.051.267-.1.39-.146.2-.073.378-.139.556-.213.152-.055.282-.106.41-.159.249-.1.47-.189.7-.282l.671-.287c.213-.09.417-.18.617-.272.119-.052.219-.1.321-.146l.1-.043c.163-.076.331-.156.5-.235,1.017-.483,2.02-1.007,2.99-1.555.1-.06.2-.12.3-.177.225-.128.446-.261.669-.39l1.1-.682c.49-.312.993-.646,1.54-1.02l.449-.318.063-.043q.17-.118.335-.241l.033-.023c.082-.059.165-.12.245-.179l.029-.023c.139-.1.278-.2.414-.3.156-.116.3-.228.45-.341.1-.079.189-.15.278-.219l.1-.08c.152-.118.3-.241.457-.363s.311-.252.463-.378l.04-.034c.292-.238.58-.484.867-.735.087-.076.176-.153.265-.229l-6.468-6.469a39.239,39.239,0,0,1-53.045-57.758,39.61,39.61,0,0,1,12.268-8.25l-6.86-6.859a48.376,48.376,0,0,0-11.983,77.17Z" transform="translate(-620.111 -568.333)" fill="#870000"/>
    <path id="Path_178" data-name="Path 178" d="M861.947,765.123A64.146,64.146,0,0,0,743.3,731.358l6.657,6.657a55.219,55.219,0,0,1,6.6-9.25l-.069-.069,2.333-2.343a55,55,0,0,1,94.011,38.77c0,1.089-.034,2.191-.1,3.28-.007.146-.017.3-.026.457-.007.109-.017.222-.023.338l0,.052c-.018.228-.037.458-.058.682-.016.189-.032.391-.052.59-.029.284-.06.586-.092.883-.02.173-.041.361-.067.553-.027.242-.063.514-.1.784-.022.152-.043.3-.067.443-.031.252-.076.527-.122.8-.022.145-.049.3-.076.467-.022.135-.046.271-.073.406-.027.176-.067.377-.1.574-.032.172-.069.36-.109.549-.041.212-.082.431-.133.649-.318,1.5-.7,3.009-1.145,4.473-.063.2-.122.409-.193.618-.049.163-.1.328-.158.5-.315.966-.659,1.933-1.027,2.87l-.155.4c-.06.149-.119.3-.182.449-.073.183-.159.384-.242.583-.063.152-.136.32-.209.49l-.033.076c-.1.227-.2.456-.3.682-.076.168-.152.338-.232.5a54.3,54.3,0,0,1-4.995,8.6l-.308.43c-.222.3-.44.6-.658.888-.106.139-.216.288-.328.431-.242.31-.483.619-.728.924-.142.175-.288.357-.437.532-.126.157-.264.322-.4.488l-.026.029c-.152.175-.3.354-.453.527-.169.2-.341.393-.517.59l6.459,6.461A63.794,63.794,0,0,0,861.947,765.123Z" transform="translate(-614.948 -557.215)" fill="#a70000"/>
    <path id="Path_179" data-name="Path 179" d="M820.759,806.519l6.859,6.859A48.37,48.37,0,0,0,805.4,722.043c-.4,0-.807.007-1.215.016-.2,0-.4.006-.6.016h-.029c-.3.012-.592.026-.891.044-.239.013-.473.026-.709.042-.123.007-.225.017-.324.023l-.166.013c-.212.017-.433.037-.652.056-.2.02-.378.037-.562.056-.136.013-.252.027-.367.04l-.189.02c-.024,0-.044.007-.063.01-.16.016-.312.036-.471.055-.6.076-1.185.163-1.757.259-.163.026-.321.052-.48.082l-.052.01c-.126.021-.246.043-.364.066l-.08.013c-.159.031-.318.06-.476.094-.45.085-.874.174-1.3.27-.285.063-.57.133-.851.2l-.037.01c-.073.013-.142.034-.215.049-.212.053-.4.1-.589.153-.162.043-.318.082-.473.128-.136.037-.252.07-.372.1s-.2.056-.284.083l-.066.02c-.121.032-.239.066-.359.106-.2.056-.373.112-.545.168l-.394.123c-.408.133-.808.268-1.208.411-.109.036-.209.073-.312.109l-.092.034c-.136.049-.255.092-.378.139-.209.076-.388.145-.566.215-.149.056-.278.109-.41.163-.249.1-.47.189-.7.281l-.672.288c-.212.089-.414.178-.616.271-.115.053-.218.1-.321.145l-.1.043-.5.234c-1.016.485-2.023,1.007-2.989,1.557-.109.059-.206.115-.3.175q-.318.182-.632.37l-.7.425-.443.278c-.494.31-1,.645-1.536,1.019-.139.1-.279.193-.414.288l-.089.063c-.126.089-.239.169-.351.251l-.046.034-.228.168-.029.023c-.14.1-.278.2-.414.3-.156.116-.3.228-.447.341-.106.079-.192.148-.278.215l-.106.082c-.152.119-.3.239-.457.364-.172.135-.338.276-.5.41-.294.239-.579.484-.867.736-.089.076-.175.152-.264.228l6.468,6.468a39.239,39.239,0,0,1,53.045,57.76A39.608,39.608,0,0,1,820.759,806.519Z" transform="translate(-622.53 -562.496)" fill="#870000"/>
  </g>
</svg>
